<svg id="svg" version="1.1" xmlns="http://www.w3.org/2000/svg" xmlns:xlink="http://www.w3.org/1999/xlink" width="400" height="208.21192052980135" viewBox="0, 0, 400,208.21192052980135"><g id="svgg"><path id="path0" d="M2.757 13.795 L 2.811 25.299 14.420 25.353 L 26.028 25.407 26.028 13.849 L 26.028 2.290 14.366 2.290 L 2.703 2.290 2.757 13.795 M24.168 3.755 C 24.557 3.964,24.571 4.296,24.571 13.859 L 24.571 23.748 24.036 23.951 C 23.719 24.072,19.799 24.154,14.368 24.154 C 8.936 24.154,5.016 24.072,4.699 23.951 L 4.164 23.748 4.164 13.845 L 4.164 3.943 4.633 3.755 C 5.307 3.484,23.661 3.484,24.168 3.755 M50.047 9.474 C 50.047 10.619,50.084 11.137,50.129 10.624 C 50.174 10.110,50.310 9.572,50.430 9.426 C 50.584 9.241,50.584 9.162,50.428 9.162 C 50.306 9.162,50.170 8.764,50.126 8.277 C 50.083 7.790,50.047 8.329,50.047 9.474 " stroke="none" fill="#1b617e" fill-rule="evenodd"></path><path id="path1" d="M0.000 13.952 L 0.000 27.904 26.809 27.851 L 53.618 27.798 53.671 13.899 L 53.725 0.000 26.862 0.000 L 0.000 0.000 0.000 13.952 M26.449 2.082 C 26.730 2.526,26.718 25.100,26.437 25.625 C 26.100 26.256,2.844 26.256,2.506 25.625 C 2.108 24.881,2.219 2.392,2.623 1.988 C 3.110 1.500,26.139 1.591,26.449 2.082 M4.885 4.425 C 4.830 4.568,4.809 8.948,4.839 14.159 L 4.893 23.634 14.472 23.634 L 24.050 23.634 24.104 13.899 L 24.158 4.164 14.571 4.164 C 7.094 4.164,4.962 4.222,4.885 4.425 M40.656 7.017 C 41.223 7.335,40.763 7.913,39.944 7.913 C 38.783 7.913,38.312 8.360,38.320 9.454 C 38.329 10.639,38.688 11.036,39.748 11.036 C 40.754 11.036,41.137 11.533,40.494 12.003 C 39.600 12.656,37.952 12.127,37.393 11.007 C 36.182 8.579,38.464 5.787,40.656 7.017 M32.001 7.324 C 32.562 7.851,32.651 8.964,32.171 9.444 C 31.782 9.833,31.784 10.191,32.177 10.711 C 32.582 11.247,32.576 12.077,32.166 12.077 C 31.992 12.077,31.547 11.647,31.177 11.122 L 30.505 10.167 30.380 10.924 C 30.232 11.817,29.930 12.180,29.478 12.007 C 29.139 11.877,28.968 7.332,29.290 7.010 C 29.641 6.659,31.525 6.877,32.001 7.324 M36.402 7.340 C 36.346 7.731,36.186 7.819,35.437 7.873 C 34.305 7.955,34.188 8.802,35.294 8.911 C 35.638 8.944,36.049 9.016,36.207 9.071 C 36.695 9.239,35.837 9.995,35.158 9.995 C 34.665 9.995,34.565 10.082,34.565 10.515 C 34.565 10.952,34.664 11.036,35.173 11.036 C 36.040 11.036,36.439 11.233,36.439 11.661 C 36.439 12.281,34.624 12.554,33.719 12.070 C 33.311 11.851,33.078 7.387,33.455 7.010 C 33.882 6.583,36.468 6.872,36.402 7.340 M44.352 7.137 C 44.352 7.284,44.164 7.564,43.935 7.760 C 43.593 8.053,43.519 8.374,43.519 9.569 C 43.519 10.808,43.580 11.054,43.935 11.244 C 44.846 11.732,44.307 12.288,42.929 12.282 C 41.769 12.277,41.493 12.028,41.922 11.373 C 42.395 10.650,42.405 8.200,41.937 7.682 C 41.754 7.480,41.666 7.215,41.741 7.093 C 41.945 6.763,44.352 6.804,44.352 7.137 M48.422 7.383 C 49.405 8.365,48.798 10.108,47.426 10.242 C 46.858 10.298,46.741 10.409,46.620 11.003 C 46.449 11.847,46.155 12.174,45.719 12.007 C 45.380 11.877,45.210 7.332,45.532 7.010 C 45.920 6.622,47.918 6.879,48.422 7.383 M52.759 6.994 C 53.287 7.197,52.501 7.866,51.640 7.948 C 51.073 8.001,50.911 8.109,50.911 8.433 C 50.911 8.757,51.072 8.864,51.640 8.916 C 52.985 9.040,52.933 9.903,51.572 10.035 C 50.434 10.145,50.520 10.992,51.679 11.075 C 52.481 11.133,52.577 11.196,52.577 11.661 C 52.577 12.348,50.291 12.584,49.824 11.945 C 49.548 11.568,49.438 7.841,49.684 7.201 C 49.813 6.863,52.029 6.714,52.759 6.994 M30.401 8.502 C 30.401 9.026,30.468 9.105,30.828 9.011 C 31.355 8.873,31.306 8.055,30.765 7.951 C 30.484 7.898,30.401 8.024,30.401 8.502 M46.788 8.044 C 46.607 8.226,46.596 9.047,46.774 9.224 C 47.045 9.496,47.708 8.924,47.644 8.473 C 47.580 8.023,47.067 7.766,46.788 8.044 M15.931 9.462 C 17.767 10.229,18.000 12.821,16.350 14.119 C 15.655 14.665,15.661 14.695,16.866 16.638 C 17.994 18.456,18.057 18.638,17.615 18.808 C 16.956 19.061,16.479 18.635,15.423 16.852 C 14.386 15.100,14.282 14.992,13.624 14.992 L 12.926 14.992 12.866 16.792 C 12.799 18.801,12.382 19.496,11.753 18.648 C 11.441 18.229,11.300 10.688,11.584 9.630 C 11.739 9.051,14.676 8.937,15.931 9.462 M13.144 10.484 C 12.983 10.678,12.913 11.314,12.952 12.214 L 13.014 13.639 13.715 13.706 C 15.599 13.886,16.715 12.228,15.565 10.958 C 14.980 10.313,13.523 10.028,13.144 10.484 M32.085 16.260 C 32.415 16.590,32.482 16.827,32.366 17.249 C 32.194 17.870,32.198 18.129,32.395 19.113 C 32.615 20.207,32.094 20.614,30.473 20.614 L 29.151 20.614 29.151 18.358 C 29.151 17.118,29.214 16.040,29.290 15.964 C 29.639 15.615,31.653 15.828,32.085 16.260 M35.723 15.984 C 37.067 16.918,36.950 19.901,35.542 20.576 C 34.048 21.293,32.967 20.028,33.153 17.783 C 33.289 16.140,34.613 15.214,35.723 15.984 M38.417 16.658 C 38.647 17.001,38.881 17.281,38.938 17.281 C 38.995 17.281,39.230 17.001,39.459 16.658 C 40.224 15.512,40.616 15.826,39.979 17.074 C 39.450 18.112,39.455 18.229,40.083 19.409 C 40.853 20.854,40.411 21.258,39.563 19.885 C 39.013 18.995,38.813 18.978,38.356 19.778 C 38.020 20.367,37.527 20.730,37.331 20.534 C 37.282 20.485,37.483 19.992,37.777 19.438 C 38.421 18.230,38.433 17.989,37.897 17.179 C 37.669 16.835,37.483 16.437,37.482 16.294 C 37.479 15.823,37.993 16.023,38.417 16.658 M30.004 16.738 C 29.672 17.138,30.048 17.907,30.577 17.907 C 31.250 17.907,31.785 17.357,31.525 16.930 C 31.232 16.449,30.338 16.336,30.004 16.738 M34.163 16.840 C 33.775 17.565,33.886 19.459,34.340 19.870 C 35.282 20.723,36.286 18.953,35.765 17.357 C 35.452 16.401,34.553 16.111,34.163 16.840 M30.008 18.716 C 29.820 18.838,29.766 19.088,29.853 19.433 C 30.123 20.508,31.737 20.290,31.611 19.195 C 31.541 18.595,30.617 18.319,30.008 18.716 " stroke="none" fill="#fbfbfb" fill-rule="evenodd"></path><path id="path2" d="M2.623 1.988 C 2.219 2.392,2.108 24.881,2.506 25.625 C 2.844 26.256,26.100 26.256,26.437 25.625 C 26.718 25.100,26.730 2.526,26.449 2.082 C 26.139 1.591,3.110 1.500,2.623 1.988 M26.394 13.719 C 26.433 22.064,26.383 25.331,26.213 25.536 C 25.888 25.928,3.139 25.960,2.749 25.570 C 2.475 25.297,2.369 2.490,2.639 2.219 C 2.717 2.142,8.081 2.103,14.560 2.133 L 26.340 2.186 26.394 13.719 M4.476 4.423 C 4.265 5.291,4.464 23.595,4.685 23.668 C 4.822 23.714,4.893 20.400,4.893 14.003 L 4.893 4.269 14.528 4.214 L 24.162 4.160 24.106 13.949 C 24.075 19.333,24.121 23.738,24.208 23.738 C 24.295 23.738,24.342 19.310,24.312 13.899 L 24.258 4.060 14.424 4.006 L 4.590 3.952 4.476 4.423 M38.938 6.820 C 37.402 7.084,36.566 9.349,37.393 11.007 C 37.952 12.127,39.600 12.656,40.494 12.003 C 41.137 11.533,40.754 11.036,39.748 11.036 C 38.688 11.036,38.329 10.639,38.320 9.454 C 38.312 8.360,38.783 7.913,39.944 7.913 C 41.215 7.913,41.242 7.071,39.979 6.830 C 39.693 6.775,39.224 6.771,38.938 6.820 M29.290 7.010 C 28.968 7.332,29.139 11.877,29.478 12.007 C 29.930 12.180,30.232 11.817,30.380 10.924 L 30.505 10.167 31.177 11.122 C 31.547 11.647,31.992 12.077,32.166 12.077 C 32.576 12.077,32.582 11.247,32.177 10.711 C 31.784 10.191,31.782 9.833,32.171 9.444 C 32.651 8.964,32.562 7.851,32.001 7.324 C 31.525 6.877,29.641 6.659,29.290 7.010 M33.455 7.010 C 33.078 7.387,33.311 11.851,33.719 12.070 C 34.624 12.554,36.439 12.281,36.439 11.661 C 36.439 11.233,36.040 11.036,35.173 11.036 C 34.664 11.036,34.565 10.952,34.565 10.515 C 34.565 10.082,34.665 9.995,35.158 9.995 C 35.837 9.995,36.695 9.239,36.207 9.071 C 36.049 9.016,35.638 8.944,35.294 8.911 C 34.188 8.802,34.305 7.955,35.437 7.873 C 36.186 7.819,36.346 7.731,36.402 7.340 C 36.468 6.872,33.882 6.583,33.455 7.010 M40.204 7.080 C 40.310 7.080,40.396 7.173,40.396 7.288 C 40.396 7.402,40.110 7.496,39.761 7.496 C 37.626 7.496,37.422 10.951,39.532 11.373 C 40.296 11.526,40.305 11.945,39.547 12.029 C 37.822 12.222,36.631 9.418,37.776 7.864 C 38.105 7.417,39.361 6.853,39.736 6.983 C 39.888 7.036,40.099 7.080,40.204 7.080 M41.741 7.093 C 41.666 7.215,41.754 7.480,41.937 7.682 C 42.405 8.200,42.395 10.650,41.922 11.373 C 41.493 12.028,41.769 12.277,42.929 12.282 C 44.307 12.288,44.846 11.732,43.935 11.244 C 43.580 11.054,43.519 10.808,43.519 9.569 C 43.519 8.374,43.593 8.053,43.935 7.760 C 44.684 7.119,44.456 6.871,43.115 6.871 C 42.434 6.871,41.816 6.971,41.741 7.093 M45.532 7.010 C 45.210 7.332,45.380 11.877,45.719 12.007 C 46.155 12.174,46.449 11.847,46.620 11.003 C 46.741 10.409,46.858 10.298,47.426 10.242 C 48.798 10.108,49.405 8.365,48.422 7.383 C 47.918 6.879,45.920 6.622,45.532 7.010 M49.684 7.201 C 49.438 7.841,49.548 11.568,49.824 11.945 C 50.291 12.584,52.577 12.348,52.577 11.661 C 52.577 11.196,52.481 11.133,51.679 11.075 C 50.520 10.992,50.434 10.145,51.572 10.035 C 52.933 9.903,52.985 9.040,51.640 8.916 C 51.072 8.864,50.911 8.757,50.911 8.433 C 50.911 8.109,51.073 8.001,51.640 7.948 C 52.501 7.866,53.287 7.197,52.759 6.994 C 52.029 6.714,49.813 6.863,49.684 7.201 M31.541 7.324 C 32.269 7.655,32.429 8.427,31.953 9.311 C 31.581 10.002,31.581 10.042,31.958 10.743 C 32.515 11.777,32.076 12.166,31.466 11.179 C 30.578 9.742,29.995 9.706,29.988 11.088 C 29.986 11.457,29.873 11.661,29.672 11.661 C 29.347 11.661,29.195 8.169,29.486 7.409 C 29.638 7.014,30.759 6.967,31.541 7.324 M35.919 7.288 C 35.848 7.402,35.530 7.496,35.213 7.496 C 34.391 7.496,33.869 8.442,34.455 8.870 C 34.674 9.031,35.122 9.162,35.450 9.162 C 35.795 9.162,35.993 9.250,35.919 9.370 C 35.848 9.485,35.518 9.578,35.185 9.578 C 34.496 9.578,34.049 10.184,34.255 10.836 C 34.351 11.137,34.573 11.244,35.100 11.244 C 35.607 11.244,35.815 11.338,35.815 11.567 C 35.815 11.826,35.598 11.878,34.721 11.828 L 33.628 11.765 33.568 9.697 C 33.491 7.043,33.473 7.080,34.883 7.080 C 35.606 7.080,35.999 7.159,35.919 7.288 M43.590 7.708 C 43.262 8.365,43.271 10.782,43.604 11.504 C 43.747 11.815,43.661 11.869,43.021 11.869 C 42.286 11.869,41.975 11.451,42.478 11.140 C 42.824 10.926,42.732 8.071,42.362 7.542 C 42.041 7.085,42.048 7.080,42.971 7.080 L 43.904 7.080 43.590 7.708 M48.214 7.591 C 49.058 8.435,48.512 9.995,47.373 9.995 C 46.575 9.995,46.226 10.218,46.226 10.729 C 46.226 11.391,46.012 11.890,45.788 11.751 C 45.574 11.619,45.530 7.429,45.740 7.218 C 46.109 6.849,47.714 7.091,48.214 7.591 M52.369 7.288 C 52.298 7.402,51.971 7.496,51.642 7.496 C 51.007 7.496,50.390 7.961,50.390 8.441 C 50.390 8.833,51.055 9.162,51.847 9.162 C 52.227 9.162,52.444 9.248,52.369 9.370 C 52.298 9.485,51.929 9.578,51.549 9.578 C 50.061 9.578,49.903 11.097,51.379 11.204 C 52.872 11.312,52.574 11.906,51.067 11.827 L 49.870 11.765 49.809 9.891 C 49.718 7.106,49.731 7.080,51.240 7.080 C 52.025 7.080,52.449 7.158,52.369 7.288 M30.195 7.908 C 29.646 8.934,30.555 9.819,31.306 8.989 C 31.775 8.471,31.740 8.227,31.137 7.832 C 30.489 7.408,30.461 7.410,30.195 7.908 M46.590 7.727 C 45.966 8.080,46.099 9.330,46.779 9.501 C 47.799 9.757,48.275 8.383,47.371 7.792 C 47.080 7.602,46.845 7.582,46.590 7.727 M31.193 8.460 C 31.235 8.759,31.119 8.935,30.828 9.011 C 30.468 9.105,30.401 9.026,30.401 8.502 C 30.401 7.764,31.088 7.727,31.193 8.460 M47.644 8.473 C 47.708 8.924,47.045 9.496,46.774 9.224 C 46.596 9.047,46.607 8.226,46.788 8.044 C 47.067 7.766,47.580 8.023,47.644 8.473 M11.584 9.630 C 11.300 10.688,11.441 18.229,11.753 18.648 C 12.382 19.496,12.799 18.801,12.866 16.792 L 12.926 14.992 13.624 14.992 C 14.282 14.992,14.386 15.100,15.423 16.852 C 16.479 18.635,16.956 19.061,17.615 18.808 C 18.057 18.638,17.994 18.456,16.866 16.638 C 15.661 14.695,15.655 14.665,16.350 14.119 C 18.000 12.821,17.767 10.229,15.931 9.462 C 14.676 8.937,11.739 9.051,11.584 9.630 M13.535 9.731 C 12.600 9.903,12.493 10.144,12.493 12.085 C 12.493 13.361,12.572 13.945,12.754 14.011 C 12.962 14.086,12.962 14.193,12.754 14.546 C 12.604 14.800,12.493 15.694,12.493 16.655 C 12.493 18.000,12.433 18.324,12.181 18.324 C 11.914 18.324,11.869 17.713,11.869 14.073 C 11.869 9.404,11.808 9.603,13.222 9.623 C 13.768 9.631,13.875 9.668,13.535 9.731 M16.243 10.342 C 16.909 10.935,17.160 12.704,16.625 13.034 C 16.453 13.141,16.422 12.996,16.516 12.526 C 16.725 11.480,16.005 10.170,15.093 9.940 C 14.722 9.846,14.728 9.832,15.150 9.811 C 15.409 9.797,15.901 10.036,16.243 10.342 M15.565 10.958 C 16.715 12.228,15.599 13.886,13.715 13.706 L 13.014 13.639 12.952 12.214 C 12.861 10.114,14.211 9.465,15.565 10.958 M15.565 14.176 C 15.136 14.426,15.077 15.317,15.480 15.471 C 15.634 15.530,15.919 15.892,16.113 16.274 C 16.308 16.657,16.649 17.275,16.871 17.647 C 17.178 18.163,17.206 18.324,16.989 18.324 C 16.832 18.324,16.644 18.090,16.572 17.803 C 16.501 17.517,16.350 17.283,16.238 17.283 C 16.125 17.283,16.033 17.095,16.033 16.866 C 16.033 16.637,15.955 16.450,15.859 16.450 C 15.762 16.450,15.505 16.075,15.286 15.617 C 15.067 15.160,14.719 14.730,14.513 14.663 C 13.926 14.472,14.492 13.950,15.278 13.957 C 15.821 13.963,15.869 13.999,15.565 14.176 M29.290 15.964 C 29.214 16.040,29.151 17.118,29.151 18.358 L 29.151 20.614 30.473 20.614 C 32.094 20.614,32.615 20.207,32.395 19.113 C 32.198 18.129,32.194 17.870,32.366 17.249 C 32.654 16.205,30.112 15.143,29.290 15.964 M33.625 16.245 C 32.648 17.325,33.068 20.223,34.259 20.616 C 35.677 21.084,36.639 20.116,36.645 18.214 C 36.650 16.174,34.788 14.960,33.625 16.245 M37.482 16.294 C 37.483 16.437,37.669 16.835,37.897 17.179 C 38.433 17.989,38.421 18.230,37.777 19.438 C 37.483 19.992,37.282 20.485,37.331 20.534 C 37.527 20.730,38.020 20.367,38.356 19.778 C 38.813 18.978,39.013 18.995,39.563 19.885 C 40.411 21.258,40.853 20.854,40.083 19.409 C 39.455 18.229,39.450 18.112,39.979 17.074 C 40.616 15.826,40.224 15.512,39.459 16.658 C 39.230 17.001,38.995 17.281,38.938 17.281 C 38.881 17.281,38.647 17.001,38.417 16.658 C 37.993 16.023,37.479 15.823,37.482 16.294 M31.525 16.930 C 31.708 17.231,31.673 17.368,31.350 17.607 C 30.780 18.030,30.246 17.980,29.977 17.478 C 29.491 16.569,30.984 16.041,31.525 16.930 M35.765 17.357 C 36.286 18.953,35.282 20.723,34.340 19.870 C 33.886 19.459,33.775 17.565,34.163 16.840 C 34.553 16.111,35.452 16.401,35.765 17.357 M31.611 19.195 C 31.737 20.290,30.123 20.508,29.853 19.433 C 29.691 18.789,30.046 18.506,30.921 18.582 C 31.427 18.626,31.558 18.742,31.611 19.195 " stroke="none" fill="#9fbdca" fill-rule="evenodd"></path><path id="path3" d="M14.472 2.238 L 26.028 2.294 26.028 13.852 L 26.028 25.410 14.367 25.355 C 7.954 25.324,2.707 25.359,2.707 25.431 C 2.707 25.931,25.591 26.034,26.004 25.536 C 26.175 25.331,26.225 22.064,26.186 13.719 L 26.132 2.186 14.524 2.184 L 2.915 2.181 14.472 2.238 M9.749 3.696 C 12.419 3.729,16.730 3.729,19.327 3.696 C 21.925 3.663,19.740 3.636,14.472 3.636 C 9.204 3.636,7.078 3.663,9.749 3.696 M4.260 4.008 C 4.007 4.668,4.271 23.808,4.534 23.861 C 4.680 23.890,4.704 23.867,4.586 23.809 C 4.259 23.646,4.294 4.326,4.623 3.998 C 4.817 3.804,4.815 3.748,4.616 3.748 C 4.475 3.748,4.315 3.865,4.260 4.008 M29.689 7.548 C 29.354 9.198,29.420 11.452,29.804 11.452 C 29.903 11.452,29.984 11.168,29.984 10.821 C 29.984 10.410,30.111 10.143,30.349 10.056 C 30.549 9.982,30.772 9.834,30.843 9.727 C 30.920 9.614,31.032 9.629,31.116 9.764 C 31.194 9.891,31.162 9.995,31.045 9.995 C 30.818 9.995,31.554 11.368,31.893 11.578 C 32.278 11.816,32.260 11.528,31.837 10.673 L 31.411 9.812 31.878 9.179 C 32.393 8.483,32.201 7.496,31.551 7.496 C 31.193 7.496,31.126 7.821,31.442 8.017 C 31.825 8.254,31.656 8.941,31.129 9.286 C 30.708 9.561,30.547 9.577,30.296 9.369 C 29.686 8.863,30.015 7.511,30.817 7.224 C 30.989 7.163,30.827 7.105,30.457 7.096 C 29.920 7.083,29.765 7.174,29.689 7.548 M33.774 7.330 C 33.315 7.789,33.443 11.394,33.928 11.654 C 34.497 11.958,34.706 11.536,34.240 11.022 C 33.776 10.509,34.103 9.641,34.819 9.488 C 35.080 9.432,35.482 9.347,35.711 9.298 C 35.940 9.250,35.794 9.199,35.386 9.186 C 33.667 9.130,33.539 7.578,35.227 7.263 C 35.869 7.144,35.850 7.132,34.971 7.107 C 34.450 7.092,33.912 7.192,33.774 7.330 M39.198 7.223 C 39.399 7.276,39.727 7.276,39.927 7.223 C 40.128 7.171,39.964 7.128,39.563 7.128 C 39.162 7.128,38.998 7.171,39.198 7.223 M42.570 7.542 C 42.974 8.119,43.023 10.824,42.636 11.211 C 42.430 11.417,42.440 11.510,42.688 11.666 C 43.067 11.905,43.358 11.831,43.481 11.462 C 43.532 11.310,43.491 11.237,43.390 11.300 C 43.165 11.440,43.347 7.705,43.583 7.340 C 43.707 7.149,43.552 7.080,42.999 7.080 C 42.262 7.080,42.253 7.090,42.570 7.542 M45.851 7.330 C 45.543 7.637,45.506 11.369,45.809 11.556 C 45.930 11.631,46.018 11.434,46.018 11.090 C 46.018 10.380,46.352 9.995,46.968 9.995 C 48.166 9.995,48.979 8.405,48.187 7.613 C 47.851 7.277,47.370 7.365,47.590 7.722 C 47.657 7.831,47.780 7.877,47.863 7.826 C 48.143 7.653,48.088 8.847,47.798 9.229 C 47.446 9.694,46.470 9.630,46.151 9.121 C 45.838 8.621,46.214 7.671,46.854 7.347 L 47.371 7.086 46.736 7.083 C 46.387 7.081,45.989 7.192,45.851 7.330 M50.162 7.236 C 50.086 7.827,50.253 9.071,50.417 9.130 C 50.541 9.175,50.543 9.293,50.421 9.442 C 50.023 9.934,50.039 11.661,50.441 11.661 C 50.642 11.661,50.807 11.567,50.807 11.452 C 50.807 11.338,50.713 11.244,50.599 11.244 C 50.484 11.244,50.390 10.919,50.390 10.523 C 50.390 9.726,50.783 9.392,51.782 9.339 C 52.162 9.319,52.038 9.263,51.432 9.183 C 49.827 8.969,49.992 7.433,51.641 7.234 C 52.202 7.166,52.119 7.139,51.275 7.113 C 50.674 7.095,50.173 7.150,50.162 7.236 M37.874 7.836 C 37.422 8.380,37.495 10.684,37.981 11.222 C 38.406 11.692,38.938 11.808,38.938 11.430 C 38.938 11.298,38.786 11.258,38.580 11.337 C 38.383 11.413,38.289 11.408,38.370 11.326 C 38.451 11.245,38.414 11.053,38.288 10.901 C 37.837 10.358,37.978 8.595,38.518 8.020 C 38.995 7.513,38.997 7.496,38.583 7.496 C 38.348 7.496,38.029 7.649,37.874 7.836 M9.630 24.102 C 12.236 24.135,16.499 24.135,19.105 24.102 C 21.710 24.069,19.578 24.042,14.368 24.042 C 9.157 24.042,7.025 24.069,9.630 24.102 " stroke="none" fill="#6c9cac" fill-rule="evenodd"></path><path id="path4" d="M2.594 2.343 C 2.539 2.486,2.519 7.756,2.549 14.055 L 2.603 25.508 2.707 13.795 C 2.764 7.353,2.785 2.082,2.752 2.082 C 2.720 2.082,2.649 2.199,2.594 2.343 M26.188 13.685 C 26.231 22.768,26.187 25.321,25.980 25.586 C 25.745 25.887,25.756 25.892,26.080 25.638 C 26.466 25.336,26.669 2.454,26.288 2.218 C 26.202 2.165,26.157 7.325,26.188 13.685 M8.121 3.898 C 16.899 4.043,24.314 4.046,24.226 3.904 C 24.173 3.818,19.755 3.769,14.407 3.795 C 9.060 3.820,6.231 3.867,8.121 3.898 M24.458 13.847 C 24.458 19.115,24.485 21.240,24.518 18.570 C 24.551 15.899,24.551 11.589,24.518 8.991 C 24.485 6.394,24.458 8.579,24.458 13.847 M29.490 7.400 C 29.418 7.586,29.373 8.129,29.389 8.606 C 29.417 9.423,29.427 9.406,29.564 8.329 C 29.719 7.108,29.699 6.855,29.490 7.400 M30.661 7.309 C 30.403 7.404,30.193 7.538,30.193 7.606 C 30.193 7.673,30.290 7.668,30.410 7.595 C 30.529 7.521,30.740 7.553,30.878 7.666 C 31.048 7.804,31.211 7.782,31.381 7.598 C 31.716 7.233,31.307 7.069,30.661 7.309 M35.227 7.263 C 34.361 7.425,33.682 8.374,34.134 8.793 C 34.365 9.008,34.388 9.005,34.259 8.778 C 33.982 8.290,34.573 7.496,35.213 7.496 C 35.530 7.496,35.848 7.402,35.919 7.288 C 35.990 7.173,36.019 7.092,35.983 7.107 C 35.948 7.122,35.608 7.192,35.227 7.263 M38.471 7.319 C 38.348 7.395,38.425 7.487,38.648 7.531 C 39.176 7.633,40.396 7.484,40.396 7.317 C 40.396 7.142,38.754 7.144,38.471 7.319 M42.357 7.490 C 42.731 8.076,42.825 10.925,42.478 11.140 C 42.133 11.353,42.244 11.869,42.634 11.866 C 42.943 11.863,42.951 11.833,42.688 11.666 C 42.440 11.510,42.430 11.417,42.636 11.211 C 43.097 10.750,42.971 8.046,42.461 7.467 L 42.028 6.976 42.357 7.490 M46.924 7.286 C 46.678 7.386,46.409 7.577,46.326 7.711 C 46.214 7.892,46.280 7.898,46.585 7.735 C 47.178 7.418,47.964 7.999,47.837 8.660 C 47.786 8.929,47.824 9.100,47.922 9.039 C 48.203 8.866,48.130 8.196,47.800 7.923 C 47.635 7.786,47.551 7.540,47.614 7.377 C 47.742 7.044,47.579 7.022,46.924 7.286 M51.641 7.234 C 50.887 7.325,50.390 7.610,50.390 7.953 C 50.390 8.062,50.538 8.003,50.718 7.823 C 50.898 7.643,51.314 7.496,51.642 7.496 C 51.971 7.496,52.298 7.402,52.369 7.288 C 52.439 7.173,52.468 7.095,52.433 7.113 C 52.398 7.131,52.041 7.186,51.641 7.234 M49.822 8.329 C 49.822 8.844,49.863 9.055,49.913 8.798 C 49.962 8.540,49.962 8.118,49.913 7.860 C 49.863 7.603,49.822 7.814,49.822 8.329 M51.640 9.370 L 50.911 9.524 51.575 9.551 C 51.941 9.566,52.298 9.485,52.369 9.370 C 52.439 9.256,52.468 9.174,52.433 9.189 C 52.398 9.204,52.041 9.286,51.640 9.370 M49.853 10.566 L 49.870 11.765 51.067 11.827 C 52.037 11.878,52.264 11.828,52.264 11.567 C 52.264 11.337,52.055 11.244,51.536 11.244 C 51.135 11.244,50.807 11.338,50.807 11.452 C 50.807 12.394,49.986 11.530,49.915 10.514 L 49.836 9.368 49.853 10.566 M12.129 9.716 C 11.707 9.887,11.758 18.324,12.181 18.324 C 12.433 18.324,12.493 18.000,12.493 16.655 C 12.493 15.694,12.604 14.800,12.754 14.546 C 12.962 14.193,12.962 14.086,12.754 14.011 C 12.572 13.945,12.493 13.361,12.493 12.085 C 12.493 10.144,12.600 9.903,13.535 9.731 C 13.875 9.668,13.768 9.631,13.222 9.623 C 12.764 9.617,12.272 9.658,12.129 9.716 M34.108 10.105 C 33.924 10.509,33.928 10.690,34.125 10.885 C 34.328 11.087,34.354 11.067,34.249 10.792 C 34.176 10.600,34.221 10.249,34.348 10.011 C 34.476 9.773,34.528 9.578,34.464 9.578 C 34.400 9.578,34.240 9.815,34.108 10.105 M15.093 9.940 C 16.005 10.170,16.725 11.480,16.516 12.526 C 16.422 12.996,16.453 13.141,16.625 13.034 C 17.596 12.434,16.367 9.748,15.150 9.811 C 14.728 9.832,14.722 9.846,15.093 9.940 M29.391 10.880 C 29.366 11.498,29.436 11.660,29.724 11.657 C 29.961 11.655,30.004 11.600,29.847 11.501 C 29.714 11.416,29.564 11.066,29.514 10.723 C 29.431 10.157,29.419 10.172,29.391 10.880 M34.490 11.556 C 34.398 11.797,34.536 11.869,35.092 11.869 C 35.596 11.869,35.815 11.774,35.815 11.556 C 35.815 11.351,35.609 11.244,35.212 11.244 C 34.869 11.244,34.558 11.378,34.490 11.556 M38.778 11.559 C 38.478 11.900,39.287 12.227,39.875 12.002 C 40.271 11.850,40.284 11.452,39.892 11.452 C 39.730 11.452,39.472 11.409,39.319 11.355 C 39.167 11.302,38.923 11.394,38.778 11.559 M14.382 14.246 C 14.188 14.480,14.215 14.566,14.513 14.663 C 14.719 14.730,15.067 15.160,15.286 15.617 C 15.505 16.075,15.762 16.450,15.859 16.450 C 15.955 16.450,16.033 16.637,16.033 16.866 C 16.033 17.095,16.125 17.283,16.238 17.283 C 16.350 17.283,16.501 17.517,16.572 17.803 C 16.644 18.090,16.832 18.324,16.989 18.324 C 17.206 18.324,17.178 18.163,16.871 17.647 C 16.649 17.275,16.308 16.657,16.113 16.274 C 15.919 15.892,15.634 15.530,15.480 15.471 C 15.077 15.317,15.136 14.426,15.565 14.176 C 15.869 13.999,15.821 13.963,15.278 13.957 C 14.920 13.954,14.517 14.084,14.382 14.246 M9.645 23.894 C 12.373 23.927,16.777 23.927,19.431 23.894 C 22.086 23.861,19.854 23.834,14.472 23.834 C 9.089 23.834,6.917 23.861,9.645 23.894 " stroke="none" fill="#7ca4b4" fill-rule="evenodd"></path></g></svg>