<svg id="svg" version="1.1" xmlns="http://www.w3.org/2000/svg" xmlns:xlink="http://www.w3.org/1999/xlink" width="150" height="150" viewBox="0, 0, 400,400"><g id="svgg"><path id="path0" d="M45.333 200.000 L 45.333 256.333 101.667 256.333 L 158.000 256.333 158.000 200.000 L 158.000 143.667 101.667 143.667 L 45.333 143.667 45.333 200.000 M149.333 200.000 L 149.333 247.667 101.667 247.667 L 54.000 247.667 54.000 200.000 L 54.000 152.333 101.667 152.333 L 149.333 152.333 149.333 200.000 M218.448 167.680 C 208.631 169.623,207.414 187.618,216.913 190.371 C 220.698 191.468,225.452 190.689,225.600 188.948 L 225.701 187.773 223.600 188.229 C 216.796 189.707,212.914 185.842,213.411 178.086 C 213.823 171.663,218.526 168.327,224.203 170.430 L 225.573 170.937 226.099 169.834 C 226.727 168.518,226.291 168.228,222.833 167.664 C 220.585 167.297,220.384 167.297,218.448 167.680 M172.667 179.119 L 172.667 190.667 174.000 190.667 L 175.333 190.667 175.333 185.833 L 175.333 181.000 177.250 181.004 L 179.167 181.008 181.871 185.754 L 184.575 190.500 186.121 190.602 C 188.046 190.728,188.173 191.209,184.797 185.601 C 183.219 182.979,181.873 180.741,181.806 180.628 C 181.738 180.515,182.401 179.977,183.278 179.431 C 185.444 178.085,186.111 176.633,185.942 173.636 C 185.697 169.313,183.731 168.020,176.992 167.746 L 172.667 167.571 172.667 179.119 M192.667 179.167 L 192.667 190.667 199.000 190.667 L 205.333 190.667 205.333 189.500 L 205.333 188.333 200.333 188.333 C 197.242 188.333,195.322 188.206,195.304 188.000 C 195.288 187.817,195.275 186.092,195.275 184.167 C 195.275 182.242,195.288 180.442,195.304 180.167 C 195.329 179.747,196.087 179.667,200.000 179.667 L 204.667 179.667 204.667 178.509 L 204.667 177.352 199.940 177.259 L 195.214 177.167 195.244 174.250 C 195.260 172.646,195.287 171.033,195.304 170.667 C 195.332 170.031,195.565 170.000,200.333 170.000 L 205.333 170.000 205.333 168.833 L 205.333 167.667 199.000 167.667 L 192.667 167.667 192.667 179.167 M231.395 168.583 C 231.495 169.458,231.598 169.508,233.667 169.667 L 235.833 169.833 235.833 179.167 L 235.833 188.500 233.667 188.667 C 231.598 188.826,231.495 188.875,231.395 189.750 L 231.289 190.667 237.311 190.667 L 243.333 190.667 243.333 189.869 C 243.333 188.891,242.799 188.667,240.473 188.667 L 238.667 188.667 238.667 179.167 L 238.667 169.667 240.473 169.667 C 242.799 169.667,243.333 169.442,243.333 168.464 L 243.333 167.667 237.311 167.667 L 231.289 167.667 231.395 168.583 M250.000 179.123 L 250.000 190.667 251.333 190.667 L 252.667 190.667 252.667 186.167 L 252.667 181.667 255.106 181.667 C 260.837 181.667,264.035 179.025,263.984 174.333 C 263.933 169.701,261.434 167.977,254.417 167.733 L 250.000 167.580 250.000 179.123 M270.000 179.167 L 270.000 190.667 276.333 190.667 L 282.667 190.667 282.667 189.500 L 282.667 188.333 277.667 188.333 C 274.575 188.333,272.655 188.206,272.637 188.000 C 272.621 187.817,272.608 186.092,272.608 184.167 C 272.608 182.242,272.621 180.442,272.637 180.167 C 272.662 179.747,273.420 179.667,277.333 179.667 L 282.000 179.667 282.000 178.509 L 282.000 177.352 277.273 177.259 L 272.547 177.167 272.577 174.250 C 272.594 172.646,272.621 171.033,272.637 170.667 C 272.665 170.031,272.899 170.000,277.667 170.000 L 282.667 170.000 282.667 168.833 L 282.667 167.667 276.333 167.667 L 270.000 167.667 270.000 179.167 M181.442 170.685 C 184.130 171.955,183.936 177.031,181.155 178.193 C 180.532 178.453,178.967 178.667,177.677 178.667 L 175.333 178.667 175.333 174.291 L 175.333 169.914 177.917 170.077 C 179.338 170.167,180.924 170.440,181.442 170.685 M259.126 170.776 C 260.476 171.661,261.077 172.841,261.077 174.609 C 261.077 178.043,259.466 179.333,255.177 179.333 L 252.667 179.333 252.667 174.625 L 252.667 169.916 255.464 170.063 C 257.328 170.161,258.551 170.399,259.126 170.776 " stroke="none" fill="#065471" fill-rule="evenodd"></path><path id="path1" d="M45.154 143.750 C 45.067 143.979,45.034 169.442,45.081 200.333 L 45.167 256.500 101.667 256.501 L 158.167 256.503 101.750 256.417 L 45.333 256.331 45.333 200.000 L 45.333 143.669 101.750 143.583 L 158.167 143.498 101.740 143.416 C 56.844 143.350,45.280 143.418,45.154 143.750 M101.417 152.583 L 149.000 152.669 149.000 200.000 L 149.000 247.331 101.417 247.417 L 53.833 247.502 101.583 247.584 L 149.333 247.667 149.333 200.000 L 149.333 152.333 101.583 152.416 L 53.833 152.498 101.417 152.583 M222.083 167.563 C 222.404 167.647,222.929 167.647,223.250 167.563 C 223.571 167.479,223.308 167.411,222.667 167.411 C 222.025 167.411,221.762 167.479,222.083 167.563 M172.483 179.167 C 172.484 185.583,172.528 188.161,172.583 184.895 C 172.638 181.629,172.637 176.379,172.583 173.228 C 172.528 170.078,172.483 172.750,172.483 179.167 M179.750 167.896 C 180.071 167.980,180.596 167.980,180.917 167.896 C 181.237 167.813,180.975 167.744,180.333 167.744 C 179.692 167.744,179.429 167.813,179.750 167.896 M192.483 179.167 C 192.484 185.583,192.528 188.161,192.583 184.895 C 192.638 181.629,192.637 176.379,192.583 173.228 C 192.528 170.078,192.483 172.750,192.483 179.167 M205.333 168.825 L 205.333 169.983 200.250 170.084 L 195.167 170.185 200.417 170.259 L 205.667 170.333 205.667 169.000 C 205.667 168.267,205.592 167.667,205.500 167.667 C 205.408 167.667,205.333 168.188,205.333 168.825 M231.000 168.667 C 231.000 169.217,231.124 169.667,231.276 169.667 C 231.427 169.667,231.485 169.217,231.404 168.667 C 231.324 168.117,231.200 167.667,231.129 167.667 C 231.058 167.667,231.000 168.117,231.000 168.667 M249.817 179.167 C 249.817 185.583,249.862 188.161,249.916 184.895 C 249.971 181.629,249.971 176.379,249.916 173.228 C 249.861 170.078,249.817 172.750,249.817 179.167 M269.817 179.167 C 269.817 185.583,269.862 188.161,269.916 184.895 C 269.971 181.629,269.971 176.379,269.916 173.228 C 269.861 170.078,269.817 172.750,269.817 179.167 M282.667 168.825 L 282.667 169.983 277.583 170.084 L 272.500 170.185 277.750 170.259 L 283.000 170.333 283.000 169.000 C 283.000 168.267,282.925 167.667,282.833 167.667 C 282.742 167.667,282.667 168.188,282.667 168.825 M260.677 168.750 C 261.493 169.162,262.500 170.010,262.914 170.633 C 263.328 171.256,263.667 171.605,263.667 171.408 C 263.667 170.414,260.795 168.000,259.613 168.000 C 259.381 168.000,259.860 168.337,260.677 168.750 M213.205 170.334 C 212.542 171.068,212.000 171.773,212.000 171.901 C 212.000 172.029,212.113 171.991,212.251 171.817 C 212.389 171.642,213.018 170.938,213.650 170.250 C 214.281 169.563,214.710 169.000,214.604 169.000 C 214.498 169.000,213.868 169.600,213.205 170.334 M220.083 169.896 C 220.404 169.980,220.929 169.980,221.250 169.896 C 221.571 169.813,221.308 169.744,220.667 169.744 C 220.025 169.744,219.762 169.813,220.083 169.896 M234.331 169.903 L 235.667 170.038 235.667 179.167 L 235.667 188.295 234.331 188.430 L 232.995 188.565 234.414 188.533 L 235.833 188.500 235.833 179.167 L 235.833 169.833 234.414 169.801 L 232.995 169.768 234.331 169.903 M238.672 170.250 C 238.675 170.636,238.761 170.701,238.926 170.441 C 239.063 170.226,239.773 169.989,240.504 169.914 C 241.821 169.780,241.818 169.778,240.250 169.723 C 238.941 169.676,238.668 169.768,238.672 170.250 M175.406 174.417 L 175.478 178.833 175.582 174.599 L 175.686 170.365 177.760 170.247 L 179.833 170.128 177.583 170.064 L 175.333 170.000 175.406 174.417 M253.750 170.243 C 254.438 170.315,255.563 170.315,256.250 170.243 C 256.938 170.171,256.375 170.112,255.000 170.112 C 253.625 170.112,253.063 170.171,253.750 170.243 M258.333 170.708 C 258.791 170.891,259.474 171.294,259.849 171.603 C 260.225 171.913,260.110 171.754,259.594 171.250 C 259.078 170.746,258.396 170.343,258.078 170.354 C 257.680 170.369,257.760 170.479,258.333 170.708 M215.333 172.333 C 214.942 172.883,214.696 173.333,214.788 173.333 C 214.880 173.333,215.275 172.883,215.667 172.333 C 216.058 171.783,216.304 171.333,216.212 171.333 C 216.120 171.333,215.725 171.783,215.333 172.333 M186.103 174.167 C 186.105 175.267,186.167 175.676,186.242 175.077 C 186.316 174.478,186.314 173.578,186.238 173.077 C 186.162 172.576,186.101 173.067,186.103 174.167 M183.100 174.333 C 183.100 175.342,183.162 175.754,183.239 175.250 C 183.315 174.746,183.315 173.921,183.239 173.417 C 183.162 172.912,183.100 173.325,183.100 174.333 M264.077 174.333 C 264.077 174.975,264.146 175.237,264.230 174.917 C 264.314 174.596,264.314 174.071,264.230 173.750 C 264.146 173.429,264.077 173.692,264.077 174.333 M210.411 177.000 C 210.411 177.642,210.479 177.904,210.563 177.583 C 210.647 177.262,210.647 176.737,210.563 176.417 C 210.479 176.096,210.411 176.358,210.411 177.000 M213.448 179.167 C 213.449 180.633,213.507 181.192,213.578 180.408 C 213.648 179.624,213.647 178.424,213.576 177.741 C 213.504 177.059,213.446 177.700,213.448 179.167 M181.500 177.689 C 180.950 178.042,180.671 178.331,180.880 178.332 C 181.089 178.333,181.614 178.038,182.046 177.678 C 183.037 176.852,182.799 176.857,181.500 177.689 M204.667 178.491 L 204.667 179.648 199.917 179.751 L 195.167 179.853 200.083 179.927 L 205.000 180.000 205.000 178.667 C 205.000 177.933,204.925 177.333,204.833 177.333 C 204.742 177.333,204.667 177.854,204.667 178.491 M263.333 177.610 C 263.333 177.824,262.776 178.636,262.095 179.416 C 260.921 180.761,260.914 180.782,261.957 179.833 C 263.167 178.734,263.827 177.716,263.527 177.416 C 263.420 177.309,263.333 177.397,263.333 177.610 M282.000 178.491 L 282.000 179.648 277.250 179.751 L 272.500 179.853 277.417 179.927 L 282.333 180.000 282.333 178.667 C 282.333 177.933,282.258 177.333,282.167 177.333 C 282.075 177.333,282.000 177.854,282.000 178.491 M88.000 200.500 L 88.000 223.333 91.000 223.333 L 94.000 223.333 94.000 214.000 L 94.000 204.667 97.583 204.681 L 101.167 204.696 106.500 213.887 C 109.433 218.942,111.994 223.141,112.190 223.218 C 112.387 223.296,113.982 223.316,115.734 223.263 L 118.921 223.167 112.808 213.167 L 106.695 203.167 108.431 202.285 C 114.712 199.094,117.251 192.151,114.665 185.238 C 112.525 179.518,107.854 177.682,95.417 177.672 L 88.000 177.667 88.000 200.500 M259.167 178.356 C 258.617 178.708,258.338 178.997,258.546 178.998 C 258.755 178.999,259.280 178.705,259.713 178.344 C 260.704 177.519,260.466 177.524,259.167 178.356 M210.424 181.333 C 210.424 182.158,210.489 182.496,210.569 182.083 C 210.648 181.671,210.648 180.996,210.569 180.583 C 210.489 180.171,210.424 180.508,210.424 181.333 M175.407 185.917 L 175.480 190.833 175.583 186.083 L 175.685 181.333 177.276 181.333 C 178.151 181.333,179.056 181.521,179.286 181.750 C 179.623 182.084,179.662 182.051,179.484 181.583 C 179.307 181.119,178.862 181.000,177.298 181.000 L 175.333 181.000 175.407 185.917 M253.750 181.909 C 254.438 181.981,255.563 181.981,256.250 181.909 C 256.938 181.838,256.375 181.779,255.000 181.779 C 253.625 181.779,253.063 181.838,253.750 181.909 M180.167 183.333 C 180.451 183.883,180.759 184.333,180.850 184.333 C 180.942 184.333,180.784 183.883,180.500 183.333 C 180.216 182.783,179.908 182.333,179.816 182.333 C 179.725 182.333,179.882 182.783,180.167 183.333 M104.772 183.509 C 107.910 184.620,109.333 186.980,109.333 191.072 C 109.333 197.381,106.088 199.657,97.083 199.664 L 94.000 199.667 94.000 191.120 L 94.000 182.573 98.583 182.757 C 101.632 182.880,103.704 183.131,104.772 183.509 M214.164 184.167 C 214.731 186.002,217.298 188.349,218.712 188.326 C 218.962 188.322,218.567 188.042,217.833 187.703 C 216.398 187.041,215.410 186.086,214.519 184.500 C 214.210 183.950,214.050 183.800,214.164 184.167 M181.500 185.667 C 181.784 186.217,182.092 186.667,182.184 186.667 C 182.275 186.667,182.118 186.217,181.833 185.667 C 181.549 185.117,181.241 184.667,181.150 184.667 C 181.058 184.667,181.216 185.117,181.500 185.667 M182.833 188.000 C 183.118 188.550,183.425 189.000,183.517 189.000 C 183.609 189.000,183.451 188.550,183.167 188.000 C 182.882 187.450,182.575 187.000,182.483 187.000 C 182.391 187.000,182.549 187.450,182.833 188.000 M213.167 188.279 C 213.717 188.890,214.467 189.546,214.833 189.736 C 215.200 189.926,215.350 189.950,215.167 189.790 C 214.983 189.629,214.234 188.974,213.501 188.332 L 212.168 187.167 213.167 188.279 M225.614 188.833 C 225.549 189.658,225.609 190.333,225.748 190.333 C 225.886 190.333,226.000 189.658,226.000 188.833 C 226.000 188.008,225.940 187.333,225.867 187.333 C 225.794 187.333,225.680 188.008,225.614 188.833 M200.230 188.249 L 205.294 188.350 205.424 189.592 L 205.555 190.833 205.611 189.417 L 205.667 188.000 200.417 188.074 L 195.167 188.148 200.230 188.249 M277.564 188.249 L 282.627 188.350 282.758 189.592 L 282.888 190.833 282.944 189.417 L 283.000 188.000 277.750 188.074 L 272.500 188.148 277.564 188.249 M220.254 188.569 C 220.669 188.649,221.269 188.646,221.587 188.562 C 221.906 188.479,221.567 188.414,220.833 188.417 C 220.100 188.421,219.839 188.489,220.254 188.569 M239.421 188.573 C 239.928 188.649,240.678 188.647,241.088 188.568 C 241.498 188.489,241.083 188.426,240.167 188.429 C 239.250 188.431,238.915 188.496,239.421 188.573 M231.000 189.667 C 231.000 190.217,231.058 190.667,231.129 190.667 C 231.200 190.667,231.324 190.217,231.404 189.667 C 231.485 189.117,231.427 188.667,231.276 188.667 C 231.124 188.667,231.000 189.117,231.000 189.667 M221.921 190.902 C 222.335 190.982,222.935 190.979,223.254 190.896 C 223.573 190.812,223.233 190.747,222.500 190.751 C 221.767 190.754,221.506 190.823,221.921 190.902 M195.143 209.631 C 189.958 211.986,188.434 224.927,192.729 230.137 C 197.285 235.664,205.312 232.420,206.692 224.494 C 208.522 213.988,202.530 206.276,195.143 209.631 M171.667 220.800 L 171.667 232.333 176.784 232.333 C 183.407 232.333,185.287 231.705,186.648 229.036 C 188.492 225.422,187.145 221.548,183.693 220.542 C 182.239 220.118,182.224 220.100,183.134 219.871 C 187.550 218.763,188.234 212.591,184.197 210.284 C 182.947 209.569,182.370 209.495,177.250 209.385 L 171.667 209.266 171.667 220.800 M210.010 210.019 C 210.212 210.396,211.642 212.804,213.189 215.370 C 216.570 220.981,216.619 219.558,212.825 225.962 C 208.782 232.786,208.932 232.333,210.729 232.333 L 212.196 232.333 214.954 227.500 C 216.472 224.842,217.765 222.667,217.828 222.667 C 217.892 222.667,219.107 224.781,220.530 227.366 C 223.340 232.473,223.292 232.423,225.296 232.271 L 226.669 232.167 223.145 226.196 L 219.621 220.225 222.810 214.970 C 226.534 208.835,226.381 209.333,224.537 209.333 L 223.075 209.333 220.621 213.493 C 219.271 215.781,218.068 217.656,217.946 217.660 C 217.825 217.663,216.626 215.792,215.280 213.500 L 212.835 209.333 211.239 209.333 C 209.732 209.333,209.664 209.371,210.010 210.019 M201.713 212.943 C 204.423 215.977,204.401 225.715,201.677 228.764 C 200.297 230.309,197.248 230.349,195.676 228.843 C 192.831 226.116,192.761 215.569,195.571 212.949 C 197.393 211.250,200.198 211.248,201.713 212.943 M182.899 213.144 C 183.620 213.983,183.717 214.358,183.580 215.784 C 183.341 218.270,181.914 218.995,177.250 218.998 L 174.667 219.000 174.667 215.471 L 174.667 211.941 178.363 212.054 C 181.978 212.164,182.078 212.188,182.899 213.144 M182.333 222.251 C 184.787 223.476,184.927 227.574,182.565 229.015 C 181.693 229.547,180.882 229.664,178.083 229.665 L 174.667 229.667 174.667 225.667 L 174.667 221.667 177.917 221.667 C 180.343 221.668,181.462 221.815,182.333 222.251 " stroke="none" fill="#0b7ca1" fill-rule="evenodd"></path></g></svg>